<?xml version="1.0" encoding="UTF-8"?>
<svg version="1.1" xmlns="http://www.w3.org/2000/svg" width="329" height="96">
<path d="M0 0 C1.16931564 0.00848969 2.33863129 0.01697937 3.54338074 0.02572632 C7.27335235 0.05927817 11.00115199 0.13456924 14.73046875 0.2109375 C17.26103646 0.24103441 19.7916381 0.26841068 22.32226562 0.29296875 C28.52157276 0.35907575 34.71961559 0.45944537 40.91796875 0.5859375 C38.88848921 4.86539263 36.6301579 8.56968166 32.91796875 11.5859375 C29.98952344 12.49523746 27.28183752 12.41080308 24.23828125 12.26953125 C23.42551727 12.25962662 22.6127533 12.24972198 21.77536011 12.23951721 C19.19600882 12.20053297 16.62101841 12.11275917 14.04296875 12.0234375 C12.28782218 11.98830219 10.53260844 11.95636705 8.77734375 11.92773438 C4.48922196 11.85082562 0.20433285 11.7301688 -4.08203125 11.5859375 C-4.21480469 12.33359375 -4.34757812 13.08125 -4.484375 13.8515625 C-4.66097656 14.83640625 -4.83757812 15.82125 -5.01953125 16.8359375 C-5.28056641 18.29773437 -5.28056641 18.29773437 -5.546875 19.7890625 C-5.98338258 22.07037218 -6.51869493 24.33259223 -7.08203125 26.5859375 C6.28296875 27.0809375 6.28296875 27.0809375 19.91796875 27.5859375 C20.57796875 23.9559375 21.23796875 20.3259375 21.91796875 16.5859375 C22.57796875 15.2659375 23.23796875 13.9459375 23.91796875 12.5859375 C28.53796875 12.5859375 33.15796875 12.5859375 37.91796875 12.5859375 C36.62173332 20.09432007 35.09788371 27.46530483 33.16796875 34.8359375 C32.94109375 35.77695313 32.71421875 36.71796875 32.48046875 37.6875 C32.238125 38.60789063 31.99578125 39.52828125 31.74609375 40.4765625 C31.53887695 41.29157227 31.33166016 42.10658203 31.11816406 42.94628906 C29.31727085 46.90708187 27.53019167 50.04100189 23.91796875 52.5859375 C19.84455958 53.53988883 15.90257849 53.40287008 11.73828125 53.26953125 C10.57038055 53.25962662 9.40247986 53.24972198 8.19918823 53.23951721 C4.47915612 53.20041908 0.76210475 53.11259487 -2.95703125 53.0234375 C-5.48303022 52.98831822 -8.00907557 52.95638031 -10.53515625 52.92773438 C-16.71846012 52.85067167 -22.90003274 52.73362458 -29.08203125 52.5859375 C-27.75924255 50.57894775 -26.424201 48.58001827 -25.08203125 46.5859375 C-24.68201904 45.81024414 -24.28200684 45.03455078 -23.86987305 44.23535156 C-20.89873953 41.49426484 -17.30149894 42.09850676 -13.4765625 42.1953125 C-12.63735764 42.20097229 -11.79815277 42.20663208 -10.93351746 42.21246338 C-8.25327492 42.23485344 -5.57436962 42.28505297 -2.89453125 42.3359375 C-1.07749327 42.35599918 0.73956567 42.37425053 2.55664062 42.390625 C7.01093187 42.43472664 11.4642236 42.50377091 15.91796875 42.5859375 C16.24796875 40.9359375 16.57796875 39.2859375 16.91796875 37.5859375 C4.37796875 37.5859375 -8.16203125 37.5859375 -21.08203125 37.5859375 C-24.81480045 30.1203991 -21.97792217 22.54869283 -19.83203125 14.8359375 C-19.63988037 14.11510986 -19.44772949 13.39428223 -19.24975586 12.65161133 C-19.04487549 11.95447021 -18.83999512 11.2573291 -18.62890625 10.5390625 C-18.45198242 9.92192383 -18.27505859 9.30478516 -18.09277344 8.66894531 C-13.7531716 -0.27440803 -9.4274868 -0.25756215 0 0 Z " fill="#FFFFFF" transform="translate(166.08203125,30.4140625)"/>
<path d="M0 0 C4.62 0 9.24 0 14 0 C12.125 10.75 12.125 10.75 11 13 C23.54 13 36.08 13 49 13 C52.407759 21.5193975 49.28768599 29.35328207 47 37.9375 C46.72671875 38.99001953 46.4534375 40.04253906 46.171875 41.12695312 C44.13324387 48.86675613 44.13324387 48.86675613 43 50 C40.64686445 50.07271741 38.29166332 50.08370868 35.9375 50.0625 C34.64714844 50.05347656 33.35679687 50.04445312 32.02734375 50.03515625 C31.02832031 50.02355469 30.02929688 50.01195312 29 50 C29.68530063 44.19463722 31.03285257 38.69827489 32.5625 33.0625 C33.366875 30.071875 34.17125 27.08125 35 24 C23.12 24 11.24 24 -1 24 C-4.38046512 13.85860465 -4.38046512 13.85860465 -3.3125 9.75 C-3.12300781 8.96109375 -2.93351563 8.1721875 -2.73828125 7.359375 C-1.95662464 4.86138245 -0.97209009 2.43022524 0 0 Z " fill="#FFFFFF" transform="translate(216,18)"/>
<path d="M0 0 C0.74958984 0.00902344 1.49917969 0.01804687 2.27148438 0.02734375 C4.11862654 0.05087422 5.96560412 0.08674439 7.8125 0.125 C-3.33035714 13.55357143 -3.33035714 13.55357143 -10.1875 18.125 C-8.58118183 22.36795153 -6.61040396 26.39538422 -4.5625 30.4375 C-3.44875 32.644375 -2.335 34.85125 -1.1875 37.125 C-6.7975 37.125 -12.4075 37.125 -18.1875 37.125 C-24.1875 26.375 -24.1875 26.375 -24.1875 24.125 C-28.1475 24.125 -32.1075 24.125 -36.1875 24.125 C-36.31125 25.15625 -36.435 26.1875 -36.5625 27.25 C-37.1875 31.125 -37.1875 31.125 -39.1875 37.125 C-43.8075 37.125 -48.4275 37.125 -53.1875 37.125 C-52.6013281 31.19590494 -51.38345619 25.80919734 -49.625 20.125 C-49.39103516 19.35027344 -49.15707031 18.57554688 -48.91601562 17.77734375 C-48.34559962 15.8914786 -47.76737197 14.0079791 -47.1875 12.125 C-46.41672119 12.14183838 -45.64594238 12.15867676 -44.85180664 12.17602539 C-41.31677532 12.22668118 -37.78530899 12.20759736 -34.25 12.1875 C-32.43145508 12.22907227 -32.43145508 12.22907227 -30.57617188 12.27148438 C-23.76480198 12.17918939 -19.89450996 11.63759483 -14.99609375 6.68359375 C-13.72308428 5.16697524 -12.45302931 3.64786584 -11.1875 2.125 C-7.39586973 -0.40275351 -4.37875969 -0.09943035 0 0 Z " fill="#FFFFFF" transform="translate(56.1875,30.875)"/>
<path d="M0 0 C17.49 0 34.98 0 53 0 C55.21195802 8.84783207 52.93708431 15.81360899 50.5 24.4375 C50.16613281 25.64599609 49.83226562 26.85449219 49.48828125 28.09960938 C48.66681571 31.06862055 47.83447878 34.03462007 47 37 C42.05 37 37.1 37 32 37 C32.59872764 34.35283362 33.20384419 31.70738615 33.8125 29.0625 C33.97814453 28.32708984 34.14378906 27.59167969 34.31445312 26.83398438 C34.5706543 25.72700195 34.5706543 25.72700195 34.83203125 24.59765625 C34.98389893 23.93258057 35.1357666 23.26750488 35.29223633 22.58227539 C36.36379153 18.67270679 37.71808904 14.84573289 39 11 C27.12 11 15.24 11 3 11 C0 3 0 3 0 0 Z " fill="#FFFFFF" transform="translate(70,31)"/>
<path d="M0 0 C4.62 0 9.24 0 14 0 C13.51775271 4.13354822 13.01114519 7.95541924 12 12 C25.86 12.495 25.86 12.495 40 13 C36.66337267 21.34156832 36.66337267 21.34156832 33 24 C29.68802553 24.81182566 26.49834178 24.70079694 23.10546875 24.5859375 C22.15811356 24.57744781 21.21075836 24.56895813 20.23469543 24.56021118 C17.21779202 24.52670403 14.20359124 24.45142976 11.1875 24.375 C9.13871056 24.34489692 7.08987909 24.31752172 5.04101562 24.29296875 C0.02630719 24.22692133 -4.9863887 24.12341781 -10 24 C-10.50615298 22.73160474 -11.00469099 21.46016898 -11.5 20.1875 C-11.7784375 19.47980469 -12.056875 18.77210937 -12.34375 18.04296875 C-13 16 -13 16 -13 13 C-9.7 13 -6.4 13 -3 13 C-2.86722656 12.22914062 -2.73445313 11.45828125 -2.59765625 10.6640625 C-2.42105469 9.66117188 -2.24445313 8.65828125 -2.0625 7.625 C-1.80146484 6.12839844 -1.80146484 6.12839844 -1.53515625 4.6015625 C-1 2 -1 2 0 0 Z " fill="#FFFFFF" transform="translate(283,18)"/>
<path d="M0 0 C4.95 0 9.9 0 15 0 C12.125 12.75 12.125 12.75 11 15 C23.21 15 35.42 15 48 15 C44.17693247 22.64613505 44.17693247 22.64613505 41 25 C37.61803832 25.82014626 34.34950923 25.70042622 30.88671875 25.5859375 C29.91716751 25.57744781 28.94761627 25.56895813 27.94868469 25.56021118 C24.86047935 25.52669869 21.77491222 25.45142228 18.6875 25.375 C16.59053258 25.34489767 14.49352411 25.31752233 12.39648438 25.29296875 C7.26331075 25.22691407 2.1321022 25.12340587 -3 25 C-5.43539108 16.0487201 -2.62695481 8.61969547 0 0 Z " fill="#FFFFFF" transform="translate(276,43)"/>
<path d="M0 0 C4.95 0 9.9 0 15 0 C11.97932456 12.43124124 8.57087347 24.71619525 5 37 C0.05 37 -4.9 37 -10 37 C-6.7 24.79 -3.4 12.58 0 0 Z " fill="#FFFFFF" transform="translate(131,31)"/>
<path d="M0 0 C4.95 0 9.9 0 15 0 C14.37571782 2.66683649 13.75059174 5.33347067 13.125 8 C12.95097656 8.74378906 12.77695313 9.48757812 12.59765625 10.25390625 C11.44097218 15.18052359 10.23786742 20.09313816 9 25 C4.05 25 -0.9 25 -6 25 C-5.37571782 22.33316351 -4.75059174 19.66652933 -4.125 17 C-3.95097656 16.25621094 -3.77695312 15.51242188 -3.59765625 14.74609375 C-2.44097218 9.81947641 -1.23786742 4.90686184 0 0 Z " fill="#FFFFFF" transform="translate(66,43)"/>
<path d="M0 0 C4.62 0 9.24 0 14 0 C13.4138281 5.92909506 12.19595619 11.31580266 10.4375 17 C10.20353516 17.77472656 9.96957031 18.54945312 9.72851562 19.34765625 C9.15809962 21.2335214 8.57987197 23.1170209 8 25 C3.05 25 -1.9 25 -7 25 C-6.02353633 21.20761816 -5.04396074 17.41608861 -4.0625 13.625 C-3.78470703 12.54476562 -3.50691406 11.46453125 -3.22070312 10.3515625 C-2.95322266 9.3203125 -2.68574219 8.2890625 -2.41015625 7.2265625 C-2.16402588 6.27346191 -1.91789551 5.32036133 -1.66430664 4.33837891 C-1 2 -1 2 0 0 Z " fill="#FFFFFF" transform="translate(209,43)"/>
<path d="M0 0 C4.62 0 9.24 0 14 0 C12.67615763 8.27401481 10.60695579 16.03992626 8 24 C5.03 24 2.06 24 -1 24 C-4.84738928 14.82545633 -3.63645239 9.09113096 0 0 Z " fill="#FFFFFF" transform="translate(16,18)"/>
<path d="M0 0 C1.93166016 0.01740234 1.93166016 0.01740234 3.90234375 0.03515625 C5.19269531 0.04417969 6.48304688 0.05320312 7.8125 0.0625 C8.81152344 0.07410156 9.81054688 0.08570312 10.83984375 0.09765625 C10.17984375 3.39765625 9.51984375 6.69765625 8.83984375 10.09765625 C3.88984375 10.09765625 -1.06015625 10.09765625 -6.16015625 10.09765625 C-4.0533113 0.12525684 -4.0533113 0.12525684 0 0 Z " fill="#FFFFFF" transform="translate(138.16015625,17.90234375)"/>
</svg>
